<svg width="481" height="483" viewBox="0 0 481 483" fill="none" xmlns="http://www.w3.org/2000/svg">
<g id="Frame 8">
<path id="Vector" fill-rule="evenodd" clip-rule="evenodd" d="M240.39 0.0300293C293.39 0.0300293 341.96 18.95 379.76 50.39C364.67 50.44 349.58 50.46 334.49 50.38L334.56 50.25H320.66C296.36 38.61 269.14 32.09 240.39 32.09C211.64 32.09 184.52 38.6 160.25 50.2C140.54 50.19 120.83 50.25 101.13 50.3C138.91 18.92 187.44 0.0300293 240.4 0.0300293H240.39ZM54.5598 209.09C54.4198 212.08 54.3398 215.1 54.3398 218.13C54.3398 289.87 94.9499 352.09 154.43 383.14C155.48 384.95 156.54 386.75 157.6 388.56L175.52 419.17L175.62 419L180.94 427.98C89.3898 402.1 22.2998 317.96 22.2998 218.13C22.2998 199.65 24.6098 181.71 28.9298 164.58L29.1298 164.94L29.1898 165.05L54.5598 209.1V209.09ZM451.15 161.85C455.93 179.8 458.49 198.66 458.49 218.12C458.49 320.61 387.79 406.53 292.51 429.89C300.88 415.71 309.26 401.54 317.65 387.37C381.83 358.03 426.44 293.3 426.44 218.11C426.44 213.54 426.27 209.01 425.95 204.53C434.36 190.31 442.76 176.08 451.15 161.84V161.85Z" fill="#4D5EFA" fill-opacity="0.79"/>
<g id="Vector_2">
<path fill-rule="evenodd" clip-rule="evenodd" d="M159.86 350.88C214.38 257.47 268.79 164.52 323.17 71.09C333.9 71.19 344.62 71.23 355.34 71.24C301.11 164.08 246.85 256.86 192.33 349.53L206.95 374.21C266.42 273.22 326.03 171.53 384.64 71.18C395.97 71.13 407.3 71.07 418.63 71.03C354.2 181.34 287.94 291.03 222.94 401.22L238.18 426.96C286.16 345.67 333.85 266.26 381.37 184.9C403.94 146.67 425.76 108.89 447.92 70.96C458.73 70.96 469.54 71 480.35 71.11C410.43 190.58 307.83 362.65 237.37 482.48C211.44 438.71 184.89 395.09 159.85 350.89L159.86 350.88Z" fill="#99FD69" fill-opacity="0.82"/>
<path d="M216.187 445.924C197.348 414.364 178.497 382.782 160.429 350.897C178.833 319.365 197.225 287.886 215.607 256.422C251.585 194.841 287.527 133.321 323.456 71.5927C333.801 71.6881 344.135 71.7279 354.469 71.7391C300.386 164.328 246.272 256.857 191.899 349.276L191.749 349.531L191.9 349.785L206.52 374.465L206.951 375.193L207.381 374.464C266.803 273.556 326.364 171.949 384.928 71.6787C388.605 71.6624 392.282 71.6451 395.959 71.6278C403.225 71.5936 410.491 71.5595 417.757 71.5332C380.185 135.851 341.995 199.954 303.797 264.072C276.632 309.668 249.464 355.273 222.509 400.966L222.359 401.22L222.51 401.475L237.75 427.215L238.181 427.943L238.611 427.214C257.017 396.03 275.381 365.121 293.709 334.272C323.156 284.709 352.512 235.3 381.802 185.153C396.673 159.963 411.219 134.967 425.751 109.997C433.226 97.1523 440.698 84.3143 448.207 71.46C458.633 71.4607 469.058 71.4988 479.483 71.6013C440.384 138.401 391.151 221.512 343.047 302.716C305.313 366.415 268.274 428.94 237.368 481.496C230.338 469.632 223.263 457.78 216.187 445.924Z" stroke="url(#paint0_radial_3_102)" stroke-opacity="0.5"/>
</g>
<g id="Vector_3">
<path fill-rule="evenodd" clip-rule="evenodd" d="M203.96 71.05C169.8 131.08 135.68 191.06 101.43 251.06L116.04 276.29C150.78 216.96 186.73 158.19 220.98 98.62H251.04C212.16 167.11 171.33 234.18 131.05 302.21L148.56 332.44C198.73 245.18 248.7 158.39 298.68 71.05H203.95H203.96Z" fill="#99FD69" fill-opacity="0.82"/>
<path d="M204.251 71.55H297.818C257.314 142.329 216.816 212.748 176.212 283.351C167 299.369 157.783 315.396 148.559 331.44L131.63 302.213C143.116 282.814 154.648 263.491 166.167 244.191C194.989 195.899 223.729 147.743 251.475 98.8668L251.899 98.12H251.04H220.98H220.691L220.547 98.3708C200.508 133.223 179.893 167.793 159.276 202.366C144.799 226.642 130.321 250.92 116.043 275.296L102.007 251.058C133.157 196.488 164.2 141.933 195.264 87.3434C198.259 82.0793 201.255 76.8148 204.251 71.55Z" stroke="url(#paint1_radial_3_102)" stroke-opacity="0.5"/>
</g>
<g id="Vector_4">
<path fill-rule="evenodd" clip-rule="evenodd" d="M91.2499 228.34C61.5199 175.61 30.6899 123.48 0.419922 71.06H182.04C170.98 90.23 159.93 109.39 148.87 128.56H131.32C134.24 133.62 137.17 138.68 140.11 143.74C123.83 171.95 107.55 200.15 91.2599 228.35L91.2499 228.34ZM112.57 140.01C99.8099 139.98 90.1299 139.93 70.2899 139.93L91.2299 176.6C98.3099 164.2 105.41 152.33 112.56 140.01H112.57ZM55.08 113.91L127.05 113.89L136.69 97.01L45.28 97.05L55.08 113.91Z" fill="#99FD69" fill-opacity="0.82"/>
<path d="M130.887 128.81C133.759 133.787 136.641 138.764 139.532 143.741C123.446 171.615 107.359 199.48 91.263 227.345C71.6134 192.51 51.4858 157.933 31.3621 123.362C21.3158 106.103 11.2704 88.8464 1.28607 71.56H181.174C175.854 80.7818 170.536 90.0014 165.218 99.2209L165.022 99.5602C159.542 109.059 154.063 118.558 148.581 128.06H131.32H130.454L130.887 128.81ZM112.571 140.016L112.571 139.51C109.168 139.502 105.984 139.493 102.768 139.483C93.9253 139.457 84.8391 139.43 70.2899 139.43H69.4286L69.8557 140.178L90.7957 176.848L91.2299 177.608L91.6641 176.848C95.9624 169.32 100.265 161.992 104.584 154.636C107.379 149.876 110.181 145.105 112.992 140.261L112.571 140.016ZM54.6477 114.161L54.7923 114.41L55.0801 114.41L127.05 114.39L127.34 114.39L127.484 114.138L137.124 97.258L137.551 96.5096L136.69 96.51L45.2798 96.55L44.4112 96.5504L44.8477 97.3013L54.6477 114.161Z" stroke="url(#paint2_radial_3_102)" stroke-opacity="0.5"/>
</g>
</g>
<defs>
<radialGradient id="paint0_radial_3_102" cx="0" cy="0" r="1" gradientUnits="userSpaceOnUse" gradientTransform="translate(320.1 276.72) rotate(90) scale(205.76 160.25)">
<stop offset="0.213542" stop-color="#585858"/>
<stop offset="1" stop-color="#585858" stop-opacity="0.53"/>
</radialGradient>
<radialGradient id="paint1_radial_3_102" cx="0" cy="0" r="1" gradientUnits="userSpaceOnUse" gradientTransform="translate(200.055 201.745) rotate(90) scale(130.695 98.625)">
<stop offset="0.213542" stop-color="#585858"/>
<stop offset="1" stop-color="#585858" stop-opacity="0.53"/>
</radialGradient>
<radialGradient id="paint2_radial_3_102" cx="0" cy="0" r="1" gradientUnits="userSpaceOnUse" gradientTransform="translate(91.2299 149.705) rotate(90) scale(78.645 90.81)">
<stop offset="0.213542" stop-color="#585858"/>
<stop offset="1" stop-color="#585858" stop-opacity="0.53"/>
</radialGradient>
</defs>
</svg>
