<svg width="321" height="413" viewBox="0 0 321 413" fill="none" xmlns="http://www.w3.org/2000/svg">
<g id="Vector">
<mask id="path-1-inside-1_3_99" fill="white">
<path fill-rule="evenodd" clip-rule="evenodd" d="M0.440186 280.85C54.9602 187.44 109.37 94.49 163.75 1.06C174.48 1.16 185.2 1.19996 195.92 1.20996C141.69 94.05 87.4302 186.83 32.9102 279.5L47.5302 304.18C107 203.19 166.61 101.5 225.22 1.14996C236.55 1.09996 247.88 1.04 259.21 1C194.78 111.31 128.52 221 63.5201 331.19L78.7603 356.93C126.74 275.64 174.43 196.23 221.95 114.87C244.52 76.64 266.34 38.86 288.5 0.929993C299.31 0.929993 310.12 0.969956 320.93 1.07996C251.01 120.55 148.41 292.62 77.9502 412.45C52.0202 368.68 25.4702 325.06 0.430176 280.86L0.440186 280.85Z"/>
</mask>
<path fill-rule="evenodd" clip-rule="evenodd" d="M0.440186 280.85C54.9602 187.44 109.37 94.49 163.75 1.06C174.48 1.16 185.2 1.19996 195.92 1.20996C141.69 94.05 87.4302 186.83 32.9102 279.5L47.5302 304.18C107 203.19 166.61 101.5 225.22 1.14996C236.55 1.09996 247.88 1.04 259.21 1C194.78 111.31 128.52 221 63.5201 331.19L78.7603 356.93C126.74 275.64 174.43 196.23 221.95 114.87C244.52 76.64 266.34 38.86 288.5 0.929993C299.31 0.929993 310.12 0.969956 320.93 1.07996C251.01 120.55 148.41 292.62 77.9502 412.45C52.0202 368.68 25.4702 325.06 0.430176 280.86L0.440186 280.85Z" fill="#99FD69" fill-opacity="0.82" stroke="url(#paint0_radial_3_99)" stroke-opacity="0.5" stroke-width="2" mask="url(#path-1-inside-1_3_99)"/>
</g>
<defs>
<radialGradient id="paint0_radial_3_99" cx="0" cy="0" r="1" gradientUnits="userSpaceOnUse" gradientTransform="translate(160.68 206.69) rotate(90) scale(205.76 160.25)">
<stop offset="0.213542" stop-color="#585858"/>
<stop offset="1" stop-color="#585858" stop-opacity="0.53"/>
</radialGradient>
</defs>
</svg>
