<svg width="438" height="430" viewBox="0 0 438 430" fill="none" xmlns="http://www.w3.org/2000/svg">
<path id="Vector" fill-rule="evenodd" clip-rule="evenodd" d="M218.97 0C271.97 0 320.54 18.92 358.34 50.36C343.25 50.41 328.16 50.43 313.07 50.35L313.14 50.22H299.24C274.94 38.58 247.72 32.06 218.97 32.06C190.22 32.06 163.1 38.57 138.83 50.17C119.12 50.16 99.4099 50.22 79.7099 50.27C117.49 18.89 166.02 0 218.98 0H218.97ZM33.1399 209.06C32.9999 212.05 32.9199 215.07 32.9199 218.1C32.9199 289.84 73.5299 352.06 133.01 383.11C134.06 384.92 135.12 386.72 136.18 388.53L154.1 419.14L154.2 418.97L159.52 427.95C67.9698 402.07 0.879883 317.93 0.879883 218.1C0.879883 199.62 3.18989 181.68 7.50989 164.55L7.7099 164.91L7.7699 165.02L33.1399 209.07V209.06ZM429.73 161.82C434.51 179.77 437.07 198.63 437.07 218.09C437.07 320.58 366.37 406.5 271.09 429.86C279.46 415.68 287.84 401.51 296.23 387.34C360.41 358 405.02 293.27 405.02 218.08C405.02 213.51 404.85 208.98 404.53 204.5C412.94 190.28 421.34 176.05 429.73 161.81V161.82Z" fill="#4D5EFA" fill-opacity="0.79"/>
</svg>
